<svg width="509" height="64" xmlns="http://www.w3.org/2000/svg" xmlns:xlink="http://www.w3.org/1999/xlink"><defs><circle id="a" cx="32" cy="32" r="32"/></defs><g fill="none" fill-rule="evenodd"><path d="M111.16 45c.827 0 1.44-.08 1.84-.24.4-.16.667-.413.8-.76.053-.187.04-.34-.04-.46a3.304 3.304 0 00-.4-.46 2.527 2.527 0 01-.56-.58c-.133-.2-.2-.473-.2-.82 0-.24.04-.52.12-.84l3.96-12.96h1.2c.987 0 1.727-.147 2.22-.44.493-.293.82-.733.98-1.32.053-.213.08-.373.08-.48 0-.853-.693-1.28-2.08-1.28h-2.36a1.09 1.09 0 01-.98-.54c-.227-.36-.34-.86-.34-1.5 0-.507.08-1.053.24-1.64.293-.933.707-1.593 1.24-1.98s1.2-.58 2-.58c-.347.613-.52 1.2-.52 1.76 0 .907.347 1.667 1.04 2.28.693.613 1.667.92 2.92.92 1.36 0 2.46-.273 3.3-.82.84-.547 1.26-1.327 1.26-2.34 0-1.253-.713-2.313-2.14-3.18s-3.567-1.3-6.42-1.3c-3.28 0-5.753.467-7.42 1.4-1.667.933-2.753 2.08-3.26 3.44-.24.72-.36 1.413-.36 2.08s.093 1.333.28 2h-1c-1.093 0-1.833.107-2.22.32-.387.213-.567.573-.54 1.08 0 .24.073.447.22.62a5.2 5.2 0 00.66.62c.453.373.793.713 1.02 1.02.227.307.34.727.34 1.26 0 .427-.067.84-.2 1.24l-3.12 10.24c-.187.64-.413 1.107-.68 1.4-.267.293-.6.547-1 .76-.453.24-.733.52-.84.84-.107.373 0 .673.32.9.32.227.827.34 1.52.34h9.12zm15.96 0c.8 0 1.367-.08 1.7-.24.333-.16.527-.413.58-.76.027-.213-.013-.387-.12-.52s-.32-.307-.64-.52a3.607 3.607 0 01-.82-.66c-.2-.227-.3-.513-.3-.86 0-.267.027-.467.08-.6l3.08-10c.16-.533.34-.907.54-1.12.2-.213.433-.32.7-.32.24 0 .453.107.64.32.187.213.387.547.6 1 .4.8.86 1.44 1.38 1.92.52.48 1.287.72 2.3.72 1.04 0 1.933-.293 2.68-.88.747-.587 1.253-1.427 1.52-2.52.107-.427.16-.893.16-1.4 0-1.333-.447-2.453-1.34-3.36s-2.087-1.36-3.58-1.36c-2.08 0-3.76.947-5.04 2.84-.213-.907-.68-1.607-1.4-2.1-.72-.493-1.627-.74-2.72-.74-1.653 0-3.24.233-4.76.7-1.52.467-2.36 1.007-2.52 1.62-.08.267-.067.48.04.64.107.16.293.347.56.56.267.24.46.44.58.6.12.16.18.387.18.68 0 .24-.027.427-.08.56l-3.56 11.56c-.187.64-.413 1.107-.68 1.4-.267.293-.6.547-1 .76-.453.24-.733.52-.84.84-.08.373.033.673.34.9.307.227.807.34 1.5.34h10.24zm21.96.36c2.347 0 4.527-.447 6.54-1.34s3.713-2.16 5.1-3.8c1.387-1.64 2.333-3.553 2.84-5.74.213-.987.32-1.88.32-2.68 0-2.373-.86-4.293-2.58-5.76-1.72-1.467-4.393-2.2-8.02-2.2-2.347 0-4.553.447-6.62 1.34s-3.813 2.147-5.24 3.76a12.83 12.83 0 00-2.9 5.54c-.213 1.013-.32 1.933-.32 2.76 0 2.453.887 4.42 2.66 5.9 1.773 1.48 4.513 2.22 8.22 2.22zm-.048-3.476l-.112-.004c-.32 0-.573-.1-.76-.3-.187-.2-.28-.593-.28-1.18 0-1.12.427-3.067 1.28-5.84.853-2.773 1.593-4.66 2.22-5.66.627-1 1.22-1.5 1.78-1.5.32 0 .567.107.74.32.173.213.26.6.26 1.16 0 1.173-.413 3.053-1.24 5.64-.907 2.933-1.66 4.907-2.26 5.92-.6 1.013-1.18 1.493-1.74 1.44l.112.004zm33.128 3.476c1.44 0 2.673-.233 3.7-.7 1.027-.467 1.807-1.067 2.34-1.8.533-.733.787-1.487.76-2.26 0-.24-.04-.447-.12-.62-.08-.173-.187-.26-.32-.26-.08 0-.233.14-.46.42-.227.28-.5.42-.82.42a.48.48 0 01-.38-.16c-.093-.107-.14-.253-.14-.44 0-.213.027-.373.08-.48l2.44-7.88c.267-.8.4-1.613.4-2.44 0-1.573-.5-2.853-1.5-3.84-1-.987-2.313-1.48-3.94-1.48-1.44 0-2.773.3-4 .9-1.227.6-2.387 1.687-3.48 3.26.08-1.307-.267-2.327-1.04-3.06-.773-.733-1.827-1.1-3.16-1.1-1.653 0-3.24.233-4.76.7-1.52.467-2.36 1.007-2.52 1.62-.08.267-.067.48.04.64.107.16.293.347.56.56.267.24.46.44.58.6.12.16.18.387.18.68 0 .24-.027.427-.08.56l-3.56 11.56c-.187.64-.413 1.107-.68 1.4-.267.293-.6.547-1 .76-.453.24-.733.52-.84.84-.08.373.033.673.34.9.307.227.807.34 1.5.34h9.12c.853 0 1.48-.08 1.88-.24.4-.16.653-.413.76-.76.053-.187.04-.347-.04-.48a1.919 1.919 0 00-.4-.44 3.309 3.309 0 01-.56-.62c-.133-.2-.2-.46-.2-.78 0-.267.053-.547.16-.84l2.48-8.16c.24-.8.627-1.473 1.16-2.02.533-.547 1.093-.82 1.68-.82.32 0 .593.1.82.3.227.2.34.473.34.82 0 .213-.067.493-.2.84l-2.2 5.76c-.48 1.227-.72 2.333-.72 3.32.027 1.36.56 2.447 1.6 3.26 1.04.813 2.44 1.22 4.2 1.22zm13.44 0c1.68 0 3.213-.273 4.6-.82 1.387-.547 2.487-1.2 3.3-1.96.813-.76 1.207-1.407 1.18-1.94a.727.727 0 00-.14-.46c-.093-.12-.233-.18-.42-.18-.24 0-.52.04-.84.12-.64.107-1.173.16-1.6.16-.48 0-.853-.093-1.12-.28-.267-.187-.4-.52-.4-1 0-.427.067-.84.2-1.24l3-9.88h2.32c1.253 0 2.053-.587 2.4-1.76a3.37 3.37 0 00.08-.56c0-.373-.14-.667-.42-.88-.28-.213-.673-.32-1.18-.32h-2.12l.56-1.84c.107-.347.16-.72.16-1.12 0-1.28-.84-1.92-2.52-1.92-1.173 0-2.127.173-2.86.52-.733.347-1.54.96-2.42 1.84l-2.52 2.52h-2.24c-.747 0-1.293.093-1.64.28-.347.187-.573.453-.68.8-.08.347-.04.647.12.9s.44.567.84.94c.453.4.807.787 1.06 1.16.253.373.38.827.38 1.36 0 .267-.067.627-.2 1.08l-2.56 7.92a5.802 5.802 0 00-.32 1.92c0 1.44.547 2.573 1.64 3.4s2.547 1.24 4.36 1.24zm19.04-.24c2 0 3.707-.36 5.12-1.08 1.413-.72 2.48-1.593 3.2-2.62.72-1.027 1.067-2.007 1.04-2.94 0-.347-.147-.52-.44-.52-.267 0-.773.133-1.52.4-.907.293-1.653.513-2.24.66a7.56 7.56 0 01-1.84.22c-1.387 0-2.467-.28-3.24-.84-.773-.56-1.147-1.533-1.12-2.92 1.093.16 2.267.24 3.52.24 2.48 0 4.633-.38 6.46-1.14 1.827-.76 2.94-2.02 3.34-3.78.107-.427.16-.893.16-1.4 0-1.68-.76-3.06-2.28-4.14-1.52-1.08-3.973-1.62-7.36-1.62-3.227 0-5.967.833-8.22 2.5-2.253 1.667-3.713 4.14-4.38 7.42-.213 1.067-.32 2-.32 2.8 0 2.853.947 5.027 2.84 6.52 1.893 1.493 4.32 2.24 7.28 2.24zm-.32-12c-.187 0-.333-.013-.44-.04.267-1.28.593-2.387.98-3.32.387-.933.78-1.633 1.18-2.1.4-.467.747-.7 1.04-.7.4 0 .613.373.64 1.12.027 1.28-.253 2.44-.84 3.48s-1.44 1.56-2.56 1.56zm30.08 12.24c1.44 0 2.673-.233 3.7-.7 1.027-.467 1.807-1.067 2.34-1.8.533-.733.787-1.487.76-2.26 0-.24-.04-.447-.12-.62-.08-.173-.187-.26-.32-.26-.08 0-.233.14-.46.42-.227.28-.5.42-.82.42a.48.48 0 01-.38-.16c-.093-.107-.14-.253-.14-.44 0-.213.027-.373.08-.48l2.44-7.88c.267-.8.4-1.613.4-2.44 0-1.573-.5-2.853-1.5-3.84-1-.987-2.313-1.48-3.94-1.48-1.44 0-2.773.3-4 .9-1.227.6-2.387 1.687-3.48 3.26.08-1.307-.267-2.327-1.04-3.06-.773-.733-1.827-1.1-3.16-1.1-1.653 0-3.24.233-4.76.7-1.52.467-2.36 1.007-2.52 1.62-.08.267-.067.48.04.64.107.16.293.347.56.56.267.24.46.44.58.6.12.16.18.387.18.68 0 .24-.027.427-.08.56l-3.56 11.56c-.187.64-.413 1.107-.68 1.4-.267.293-.6.547-1 .76-.453.24-.733.52-.84.84-.08.373.033.673.34.9.307.227.807.34 1.5.34h9.12c.853 0 1.48-.08 1.88-.24.4-.16.653-.413.76-.76.053-.187.04-.347-.04-.48a1.919 1.919 0 00-.4-.44 3.309 3.309 0 01-.56-.62c-.133-.2-.2-.46-.2-.78 0-.267.053-.547.16-.84l2.48-8.16c.24-.8.627-1.473 1.16-2.02.533-.547 1.093-.82 1.68-.82.32 0 .593.1.82.3.227.2.34.473.34.82 0 .213-.067.493-.2.84l-2.2 5.76c-.48 1.227-.72 2.333-.72 3.32.027 1.36.56 2.447 1.6 3.26 1.04.813 2.44 1.22 4.2 1.22zm24.84-.24c1.12 0 2.16-.24 3.12-.72s1.727-1.093 2.3-1.84c.573-.747.847-1.48.82-2.2 0-.24-.04-.453-.12-.64-.08-.187-.187-.28-.32-.28-.08 0-.233.14-.46.42-.227.28-.5.42-.82.42a.543.543 0 01-.4-.16c-.107-.107-.16-.253-.16-.44 0-.08.027-.227.08-.44l5.72-18.8c.187-.56.28-1.133.28-1.72 0-1.013-.367-1.813-1.1-2.4-.733-.587-1.873-.88-3.42-.88-1.653 0-3.24.227-4.76.68-1.52.453-2.36.987-2.52 1.6-.08.267-.06.48.06.64.12.16.313.347.58.56.24.187.433.373.58.56.147.187.22.427.22.72 0 .16-.04.36-.12.6l-1.36 4.48a7.032 7.032 0 00-2.22-1.2c-.813-.267-1.793-.4-2.94-.4-2.107 0-3.987.66-5.64 1.98-1.653 1.32-2.94 3.053-3.86 5.2-.92 2.147-1.38 4.433-1.38 6.86 0 1.44.313 2.727.94 3.86s1.467 2.007 2.52 2.62a6.68 6.68 0 003.42.92 6.69 6.69 0 002.96-.68c.933-.453 1.76-1.147 2.48-2.08.373.827 1.053 1.493 2.04 2 .987.507 2.147.76 3.48.76zm-7.32-5.2c-.96 0-1.44-.733-1.44-2.2-.027-1.307.187-2.773.64-4.4.453-1.627 1.053-3.013 1.8-4.16.747-1.147 1.507-1.72 2.28-1.72.507 0 .973.187 1.4.56l-3.12 10.12c-.213.64-.44 1.1-.68 1.38-.24.28-.533.42-.88.42zm40.6 5.44c2.427 0 4.9-.807 7.42-2.42a21.141 21.141 0 006.26-6.14c1.653-2.48 2.48-4.907 2.48-7.28 0-1.76-.467-3.147-1.4-4.16-.933-1.013-2.107-1.52-3.52-1.52-1.413 0-2.493.473-3.24 1.42-.747.947-1.12 2.1-1.12 3.46 0 .96.22 1.893.66 2.8.44.907 1.193 1.827 2.26 2.76-.48 1.333-1.1 2.487-1.86 3.46-.76.973-1.533 1.72-2.32 2.24-.787.52-1.473.78-2.06.78-.427 0-.76-.093-1-.28-.24-.187-.36-.453-.36-.8 0-.267.027-.467.08-.6l2.6-8.56c.213-.773.32-1.44.32-2 0-1.413-.493-2.547-1.48-3.4-.987-.853-2.387-1.28-4.2-1.28-1.093 0-2.073.14-2.94.42-.867.28-1.54.633-2.02 1.06-.48.427-.707.827-.68 1.2 0 .267.2.573.6.92.24.213.427.413.56.6.133.187.2.413.2.68 0 .107-.027.267-.08.48l-2.28 7.84c-.32.747-.647 1.287-.98 1.62-.333.333-.74.5-1.22.5-.347 0-.62-.093-.82-.28-.2-.187-.3-.453-.3-.8 0-.133.053-.387.16-.76l2.04-6.8c.213-.72.32-1.387.32-2 0-1.387-.5-2.513-1.5-3.38s-2.393-1.3-4.18-1.3c-1.093 0-2.073.14-2.94.42-.867.28-1.54.633-2.02 1.06-.48.427-.707.827-.68 1.2 0 .267.2.573.6.92.24.213.427.413.56.6.133.187.2.413.2.68 0 .107-.027.267-.08.48l-2.24 7.84a9.56 9.56 0 00-.44 2.8c0 1.733.567 3.047 1.7 3.94 1.133.893 2.607 1.34 4.42 1.34 1.307 0 2.56-.307 3.76-.92 1.2-.613 2.293-1.52 3.28-2.72.4 1.253 1.267 2.213 2.6 2.88 1.333.667 2.96 1 4.88 1zm24.96 0c2.347 0 4.527-.447 6.54-1.34s3.713-2.16 5.1-3.8c1.387-1.64 2.333-3.553 2.84-5.74.213-.987.32-1.88.32-2.68 0-2.373-.86-4.293-2.58-5.76-1.72-1.467-4.393-2.2-8.02-2.2-2.347 0-4.553.447-6.62 1.34s-3.813 2.147-5.24 3.76a12.83 12.83 0 00-2.9 5.54c-.213 1.013-.32 1.933-.32 2.76 0 2.453.887 4.42 2.66 5.9 1.773 1.48 4.513 2.22 8.22 2.22zm-.048-3.476l-.112-.004c-.32 0-.573-.1-.76-.3-.187-.2-.28-.593-.28-1.18 0-1.12.427-3.067 1.28-5.84.853-2.773 1.593-4.66 2.22-5.66.627-1 1.22-1.5 1.78-1.5.32 0 .567.107.74.32.173.213.26.6.26 1.16 0 1.173-.413 3.053-1.24 5.64-.907 2.933-1.66 4.907-2.26 5.92-.6 1.013-1.18 1.493-1.74 1.44l.112.004zM350.92 45c.8 0 1.367-.08 1.7-.24.333-.16.527-.413.58-.76.027-.213-.013-.387-.12-.52s-.32-.307-.64-.52a3.607 3.607 0 01-.82-.66c-.2-.227-.3-.513-.3-.86 0-.267.027-.467.08-.6l3.08-10c.16-.533.34-.907.54-1.12.2-.213.433-.32.7-.32.24 0 .453.107.64.32.187.213.387.547.6 1 .4.8.86 1.44 1.38 1.92.52.48 1.287.72 2.3.72 1.04 0 1.933-.293 2.68-.88.747-.587 1.253-1.427 1.52-2.52.107-.427.16-.893.16-1.4 0-1.333-.447-2.453-1.34-3.36s-2.087-1.36-3.58-1.36c-2.08 0-3.76.947-5.04 2.84-.213-.907-.68-1.607-1.4-2.1-.72-.493-1.627-.74-2.72-.74-1.653 0-3.24.233-4.76.7-1.52.467-2.36 1.007-2.52 1.62-.08.267-.067.48.04.64.107.16.293.347.56.56.267.24.46.44.58.6.12.16.18.387.18.68 0 .24-.027.427-.08.56l-3.56 11.56c-.187.64-.413 1.107-.68 1.4-.267.293-.6.547-1 .76-.453.24-.733.52-.84.84-.08.373.033.673.34.9.307.227.807.34 1.5.34h10.24zm29.68.36c1.413 0 2.62-.233 3.62-.7 1-.467 1.747-1.067 2.24-1.8.493-.733.727-1.487.7-2.26 0-.24-.04-.447-.12-.62-.08-.173-.187-.26-.32-.26-.08 0-.233.14-.46.42-.227.28-.5.42-.82.42-.347 0-.52-.187-.52-.56 0-.213.027-.387.08-.52l.32-1.24c.187-.533.28-1.067.28-1.6 0-1.093-.44-1.987-1.32-2.68-.88-.693-2.227-1.107-4.04-1.24.373-.427.627-.893.76-1.4.213-.773.413-1.293.6-1.56.187-.267.413-.373.68-.32-.027.72.267 1.367.88 1.94s1.48.86 2.6.86c1.253 0 2.267-.36 3.04-1.08.773-.72 1.16-1.72 1.16-3 0-1.2-.46-2.22-1.38-3.06-.92-.84-2.14-1.26-3.66-1.26-1.76 0-3.173.52-4.24 1.56-1.067 1.04-1.933 2.547-2.6 4.52-.187.613-.447 1.08-.78 1.4-.333.32-.767.48-1.3.48h-1.32l3.48-11.36c.187-.56.28-1.147.28-1.76 0-1.013-.36-1.807-1.08-2.38-.72-.573-1.853-.86-3.4-.86-1.653 0-3.24.227-4.76.68-1.52.453-2.36.987-2.52 1.6-.08.267-.06.48.06.64.12.16.313.347.58.56.24.187.433.373.58.56.147.187.22.427.22.72 0 .16-.04.36-.12.6l-6.08 19.96c-.187.64-.413 1.107-.68 1.4-.267.293-.6.547-1 .76-.453.24-.733.52-.84.84-.107.373 0 .673.32.9.32.227.827.34 1.52.34h9.12c.827 0 1.44-.08 1.84-.24.4-.16.667-.413.8-.76.053-.187.04-.34-.04-.46a3.304 3.304 0 00-.4-.46 2.527 2.527 0 01-.56-.58c-.133-.2-.2-.473-.2-.82 0-.24.04-.52.12-.84l1.8-5.88h.8c.48 0 .833.08 1.06.24.227.16.34.413.34.76 0 .213-.067.56-.2 1.04l-.76 2c-.213.64-.32 1.213-.32 1.72 0 1.387.567 2.507 1.7 3.36 1.133.853 2.553 1.28 4.26 1.28zm17.56-.2c3.173 0 5.733-.52 7.68-1.56s3.133-2.453 3.56-4.24c.107-.587.16-.987.16-1.2 0-1.013-.3-1.893-.9-2.64a7.634 7.634 0 00-2.2-1.86c-.867-.493-1.967-1.033-3.3-1.62-1.547-.72-2.667-1.32-3.36-1.8-.693-.48-1.04-1.067-1.04-1.76-.027-.587.18-1.04.62-1.36.44-.32.993-.48 1.66-.48.373 0 .8.067 1.28.2-.107.32-.16.653-.16 1 0 1.013.46 1.853 1.38 2.52.92.667 2.047 1 3.38 1 1.307 0 2.327-.293 3.06-.88.733-.587 1.1-1.347 1.1-2.28 0-.907-.433-1.72-1.3-2.44s-2.107-1.28-3.72-1.68c-1.613-.4-3.527-.6-5.74-.6-3.36 0-5.953.647-7.78 1.94s-2.74 3.033-2.74 5.22c0 1.013.273 1.893.82 2.64a7.303 7.303 0 001.98 1.86c.773.493 1.76 1.02 2.96 1.58 1.28.613 2.213 1.14 2.8 1.58.587.44.893.967.92 1.58 0 .667-.227 1.187-.68 1.56-.453.373-1.027.56-1.72.56-.587 0-1.2-.08-1.84-.24.08-.373.12-.733.12-1.08 0-1.28-.473-2.333-1.42-3.16s-2.087-1.24-3.42-1.24c-1.147 0-2.067.293-2.76.88-.693.587-1.04 1.453-1.04 2.6 0 1.68 1.047 3 3.14 3.96s4.927 1.44 8.5 1.44zm30.6.2c1.44 0 2.673-.233 3.7-.7 1.027-.467 1.807-1.067 2.34-1.8.533-.733.787-1.487.76-2.26 0-.24-.04-.447-.12-.62-.08-.173-.187-.26-.32-.26-.08 0-.233.14-.46.42-.227.28-.5.42-.82.42a.48.48 0 01-.38-.16c-.093-.107-.14-.253-.14-.44 0-.213.027-.373.08-.48l2.44-7.88c.267-.8.4-1.613.4-2.44 0-1.573-.5-2.853-1.5-3.84-1-.987-2.313-1.48-3.94-1.48-1.36 0-2.62.267-3.78.8-1.16.533-2.26 1.48-3.3 2.84l2.16-7.04c.187-.56.28-1.133.28-1.72 0-1.013-.367-1.813-1.1-2.4-.733-.587-1.873-.88-3.42-.88-1.653 0-3.24.227-4.76.68-1.52.453-2.36.987-2.52 1.6-.08.267-.06.48.06.64.12.16.313.347.58.56.24.187.433.373.58.56.147.187.22.427.22.72 0 .16-.04.36-.12.6l-6.08 19.96c-.187.64-.413 1.107-.68 1.4-.267.293-.6.547-1 .76-.453.24-.733.52-.84.84-.107.373 0 .673.32.9.32.227.827.34 1.52.34h9.12c.827 0 1.44-.08 1.84-.24.4-.16.667-.413.8-.76.053-.187.04-.34-.04-.46a3.304 3.304 0 00-.4-.46 2.527 2.527 0 01-.56-.58c-.133-.2-.2-.473-.2-.82 0-.24.04-.52.12-.84l2.52-8.12v.08c.32-1.04.74-1.793 1.26-2.26.52-.467 1.033-.7 1.54-.7.32 0 .593.1.82.3.227.2.34.473.34.82 0 .213-.067.493-.2.84l-2.2 5.76c-.48 1.227-.72 2.333-.72 3.32.027 1.36.56 2.447 1.6 3.26 1.04.813 2.44 1.22 4.2 1.22zm17.8 0c2.347 0 4.527-.447 6.54-1.34s3.713-2.16 5.1-3.8c1.387-1.64 2.333-3.553 2.84-5.74.213-.987.32-1.88.32-2.68 0-2.373-.86-4.293-2.58-5.76-1.72-1.467-4.393-2.2-8.02-2.2-2.347 0-4.553.447-6.62 1.34s-3.813 2.147-5.24 3.76a12.83 12.83 0 00-2.9 5.54c-.213 1.013-.32 1.933-.32 2.76 0 2.453.887 4.42 2.66 5.9 1.773 1.48 4.513 2.22 8.22 2.22zm-.048-3.476l-.112-.004c-.32 0-.573-.1-.76-.3-.187-.2-.28-.593-.28-1.18 0-1.12.427-3.067 1.28-5.84.853-2.773 1.593-4.66 2.22-5.66.627-1 1.22-1.5 1.78-1.5.32 0 .567.107.74.32.173.213.26.6.26 1.16 0 1.173-.413 3.053-1.24 5.64-.907 2.933-1.66 4.907-2.26 5.92-.6 1.013-1.18 1.493-1.74 1.44l.112.004zM465.96 52.6c.827 0 1.44-.073 1.84-.22.4-.147.653-.393.76-.74.053-.187.047-.347-.02-.48s-.207-.307-.42-.52a2.962 2.962 0 01-.52-.58c-.133-.2-.2-.447-.2-.74 0-.267.053-.547.16-.84l1.28-4.28c1.36.773 2.96 1.16 4.8 1.16 2.88 0 5.413-.86 7.6-2.58 2.187-1.72 3.68-4.233 4.48-7.54.347-1.387.52-2.707.52-3.96 0-2.347-.587-4.2-1.76-5.56-1.173-1.36-2.787-2.04-4.84-2.04-2.267 0-4.307 1.16-6.12 3.48-.107-1.04-.54-1.853-1.3-2.44s-1.727-.88-2.9-.88c-1.653 0-3.24.233-4.76.7-1.52.467-2.36 1.007-2.52 1.62-.08.267-.067.48.04.64.107.16.293.347.56.56.267.187.467.367.6.54.133.173.2.407.2.7 0 .16-.04.36-.12.6l-5.84 19.16c-.187.613-.4 1.06-.64 1.34s-.56.553-.96.82c-.24.107-.427.227-.56.36a1.091 1.091 0 00-.28.52c-.133.347-.047.633.26.86.307.227.807.34 1.5.34h9.16zm4.96-10.88c-.453 0-.84-.16-1.16-.48l3.16-10.48c.373-.533.747-.913 1.12-1.14.373-.227.68-.34.92-.34.32 0 .567.087.74.26.173.173.26.54.26 1.1 0 .907-.32 2.547-.96 4.92-.693 2.48-1.367 4.127-2.02 4.94-.653.813-1.34 1.22-2.06 1.22zm24.44 3.44c3.173 0 5.733-.52 7.68-1.56s3.133-2.453 3.56-4.24c.107-.587.16-.987.16-1.2 0-1.013-.3-1.893-.9-2.64a7.634 7.634 0 00-2.2-1.86c-.867-.493-1.967-1.033-3.3-1.62-1.547-.72-2.667-1.32-3.36-1.8-.693-.48-1.04-1.067-1.04-1.76-.027-.587.18-1.04.62-1.36.44-.32.993-.48 1.66-.48.373 0 .8.067 1.28.2-.107.32-.16.653-.16 1 0 1.013.46 1.853 1.38 2.52.92.667 2.047 1 3.38 1 1.307 0 2.327-.293 3.06-.88.733-.587 1.1-1.347 1.1-2.28 0-.907-.433-1.72-1.3-2.44s-2.107-1.28-3.72-1.68c-1.613-.4-3.527-.6-5.74-.6-3.36 0-5.953.647-7.78 1.94S487 28.453 487 30.64c0 1.013.273 1.893.82 2.64a7.303 7.303 0 001.98 1.86c.773.493 1.76 1.02 2.96 1.58 1.28.613 2.213 1.14 2.8 1.58.587.44.893.967.92 1.58 0 .667-.227 1.187-.68 1.56-.453.373-1.027.56-1.72.56-.587 0-1.2-.08-1.84-.24.08-.373.12-.733.12-1.08 0-1.28-.473-2.333-1.42-3.16s-2.087-1.24-3.42-1.24c-1.147 0-2.067.293-2.76.88-.693.587-1.04 1.453-1.04 2.6 0 1.68 1.047 3 3.14 3.96s4.927 1.44 8.5 1.44z" fill="#000" fill-rule="nonzero"/><g><mask id="b" fill="#fff"><use xlink:href="#a"/></mask><use fill="#FFF" xlink:href="#a"/><g mask="url(#b)"><path fill="#FEF6E9" d="M0 0h64L26.667 15.238 32 64H0z"/><path fill-opacity=".2" fill="#50E3C2" d="M64 64H0l48.762-14.476L32 0h32z"/></g></g></g></svg>